PathFileType   4   (X/Y/Z)
DataRate	CameraRate	NumFrames	NumMarkers	Units	OrigDataRate	OrigDataStartFrame	OrigNumFrames
120.0	120.0	10	37	mm	120.0	79	105
Frame#	Time	midhip	hip_r	hip_l	knee_r	knee_l	ankle_r	ankle_l	midasis	asis_r	asis_l	psis_r	psis_l	epicondLat_r	epicondLat_l	epicondMed_r	epicondMed_l	malleolusLat_r	malleolusLat_l	malleolusMedv_r	malleolusMedv_l	neck	subclavicle_r	subclavicle_l	sternalnotch	xyphoidprocess	thighwand_r	thighwand_l	upperleg1_r	upperleg1_l	upperleg2_r	upperleg2_l	shankwand_r	shankwand_l	lowerleg1_r	lowerleg1_l	toe_r	toe_l
 	 	X1	Y1	Z1	X2	Y2	Z2	X3	Y3	Z3	X4	Y4	Z4	X5	Y5	Z5	X6	Y6	Z6	X7	Y7	Z7	X8	Y8	Z8	X9	Y9	Z9	X10	Y10	Z10	X11	Y11	Z11	X12	Y12	Z12	X13	Y13	Z13	X14	Y14	Z14	X15	Y15	Z15	X16	Y16	Z16	X17	Y17	Z17	X18	Y18	Z18	X19	Y19	Z19	X20	Y20	Z20	X21	Y21	Z21	X22	Y22	Z22	X23	Y23	Z23	X24	Y24	Z24	X25	Y25	Z25	X26	Y26	Z26	X27	Y27	Z27	X28	Y28	Z28	X29	Y29	Z29	X30	Y30	Z30	X31	Y31	Z31	X32	Y32	Z32	X33	Y33	Z33	X34	Y34	Z34	X35	Y35	Z35	X36	Y36	Z36	X37	Y37	Z37

	79	0.75833	1369.523	739.816	-233.795	1356.826	735.842	-168.608	1356.349	741.688	-298.792	1479.105	415.368	-159.028	1373.519	421.704	-270.947	1296.857	148.590	-171.326	1306.981	69.289	-258.158	1431.449	802.653	-231.106	1431.813	798.203	-132.006	1431.086	807.103	-330.205	1278.016	851.484	-193.026	1274.335	853.089	-247.796	1481.309	417.850	-104.129	1373.806	416.995	-325.243	1490.160	406.657	-195.179	1365.263	396.380	-231.501	1287.179	153.547	-135.437	1305.340	68.258	-295.108	1305.606	149.239	-194.369	1306.575	68.874	-228.090	1309.997	1217.196	-235.504	1418.278	1158.362	-194.970	1415.394	1161.179	-270.934	1402.074	1158.647	-233.830	1429.869	1076.284	-235.531	1548.150	564.341	-52.199	1513.393	545.728	-287.716	1454.540	584.380	-80.221	1442.296	599.901	-328.741	1485.292	505.646	-92.533	1434.333	513.563	-320.812	1332.225	254.561	-56.145	1354.702	180.700	-371.531	1324.058	222.663	-132.643	1324.029	149.682	-299.604	1347.454	67.151	-140.539	1407.189	36.991	-263.153
	80	0.76667	1380.057	740.266	-233.375	1367.659	736.391	-168.234	1366.459	741.611	-298.439	1496.145	417.794	-159.387	1376.566	421.609	-270.526	1327.540	141.625	-170.826	1307.306	69.467	-257.952	1441.914	802.923	-231.464	1442.825	798.960	-132.607	1441.003	806.886	-330.321	1288.630	851.828	-192.144	1284.533	853.316	-246.877	1498.900	420.429	-104.519	1376.740	416.879	-324.820	1507.188	409.937	-195.535	1368.922	396.546	-230.958	1317.695	146.149	-134.926	1305.481	68.507	-294.895	1336.729	142.774	-193.854	1307.124	68.963	-227.867	1321.294	1217.865	-235.342	1429.444	1158.374	-194.943	1426.555	1161.345	-270.861	1413.233	1158.807	-233.778	1440.641	1076.318	-235.641	1563.976	568.663	-53.113	1519.230	543.253	-287.424	1469.638	586.897	-79.967	1449.168	598.898	-327.994	1501.741	508.715	-92.746	1439.726	512.733	-320.240	1357.653	249.457	-55.921	1355.359	180.814	-371.297	1350.800	217.153	-132.327	1324.587	149.754	-299.252	1383.449	64.285	-139.783	1407.272	36.915	-263.140
	81	0.77500	1390.647	740.564	-232.900	1378.550	736.821	-167.756	1376.522	741.423	-297.974	1512.562	419.811	-159.752	1379.524	421.522	-270.199	1358.705	134.479	-170.357	1307.702	69.694	-257.751	1452.373	803.082	-231.770	1453.909	799.594	-133.071	1450.836	806.570	-330.468	1299.342	852.007	-191.087	1294.808	853.418	-245.771	1515.870	422.593	-104.922	1379.548	416.808	-324.494	1523.784	413.076	-196.345	1372.857	396.507	-230.599	1348.758	138.507	-134.425	1305.615	68.813	-294.681	1367.897	135.992	-193.441	1307.527	69.124	-227.627	1332.569	1218.068	-235.471	1440.629	1158.271	-194.944	1437.688	1161.340	-270.837	1424.389	1158.788	-233.757	1451.609	1076.239	-235.741	1579.408	572.397	-54.059	1524.985	540.732	-287.249	1484.399	589.113	-79.818	1456.009	597.799	-327.369	1517.794	511.362	-93.220	1445.233	511.795	-319.801	1383.372	243.855	-55.650	1355.805	181.021	-371.155	1377.920	211.205	-132.056	1325.070	149.875	-298.977	1419.713	61.515	-139.149	1407.395	36.854	-263.150
	82	0.78333	1401.259	740.669	-232.255	1389.481	737.153	-166.992	1386.424	741.116	-297.211	1528.338	421.393	-160.144	1382.496	421.429	-269.958	1390.354	127.254	-169.902	1308.163	69.979	-257.560	1462.771	803.126	-231.910	1465.085	800.126	-133.320	1460.457	806.126	-330.501	1310.145	852.046	-189.860	1305.193	853.399	-244.504	1532.224	424.290	-105.358	1382.245	416.803	-324.261	1539.895	415.843	-197.349	1376.980	396.248	-230.808	1380.389	130.735	-133.918	1305.745	69.188	-294.472	1399.274	129.052	-193.034	1307.731	69.432	-227.391	1343.918	1218.030	-235.565	1451.841	1158.067	-195.006	1448.812	1161.181	-270.883	1435.554	1158.632	-233.793	1462.629	1076.038	-235.854	1594.415	575.532	-55.045	1530.812	538.211	-287.370	1498.967	590.996	-79.971	1462.891	596.675	-327.018	1533.374	513.709	-93.889	1450.852	510.764	-319.743	1409.437	237.851	-55.316	1356.099	181.326	-371.089	1405.432	204.868	-131.809	1325.654	150.160	-298.796	1456.220	58.914	-138.641	1407.547	36.799	-263.179
	83	0.79167	1411.945	740.615	-231.292	1400.489	737.379	-166.043	1396.323	740.720	-296.249	1543.519	422.518	-160.591	1385.504	421.358	-269.798	1422.482	120.062	-169.432	1308.671	70.335	-257.388	1473.197	803.069	-231.896	1476.350	800.540	-133.339	1470.044	805.597	-330.454	1321.018	851.988	-188.471	1315.716	853.254	-243.124	1547.979	425.491	-105.853	1384.837	416.882	-324.110	1555.208	418.343	-198.652	1380.413	396.460	-231.177	1412.581	122.970	-133.380	1305.873	69.643	-294.276	1431.060	122.153	-192.577	1307.714	69.891	-227.117	1355.325	1217.933	-235.529	1463.077	1157.685	-195.094	1460.016	1160.927	-270.957	1446.772	1158.350	-233.868	1473.655	1075.697	-236.075	1608.963	578.063	-56.066	1536.776	535.678	-287.876	1513.223	592.506	-80.207	1469.747	595.553	-326.983	1548.370	515.700	-94.715	1456.082	509.911	-320.002	1435.862	231.573	-54.917	1356.300	181.754	-371.079	1433.264	198.331	-131.361	1326.261	150.588	-298.584	1492.949	56.590	-138.259	1407.698	36.725	-263.227
	84	0.80000	1422.779	740.442	-230.284	1411.607	737.472	-164.975	1406.332	740.244	-295.154	1558.177	423.190	-161.101	1388.584	421.328	-269.693	1455.077	113.019	-168.907	1309.230	70.770	-257.229	1483.712	802.916	-231.730	1487.708	800.817	-133.121	1479.716	805.016	-330.338	1332.018	851.780	-187.008	1326.379	852.986	-241.675	1563.163	426.189	-106.410	1387.328	417.062	-324.011	1570.010	420.466	-200.012	1382.252	398.259	-230.026	1445.307	115.358	-132.778	1306.005	70.190	-294.084	1463.080	115.313	-192.049	1308.029	70.380	-226.891	1366.719	1217.524	-235.659	1474.359	1157.184	-195.061	1471.329	1160.527	-270.886	1458.068	1157.910	-233.822	1484.901	1075.243	-236.130	1623.002	579.967	-57.069	1542.878	533.160	-288.871	1526.977	593.578	-80.450	1476.586	594.459	-327.159	1562.828	517.270	-95.558	1460.232	509.162	-319.958	1462.629	225.172	-54.462	1356.423	182.323	-371.107	1461.392	191.744	-130.621	1326.876	151.074	-298.299	1529.853	54.678	-137.982	1407.835	36.632	-263.298
	85	0.80833	1433.588	739.997	-229.480	1422.819	737.363	-163.946	1416.518	739.701	-294.088	1572.386	423.419	-161.665	1391.763	421.382	-269.610	1488.122	106.254	-168.304	1309.868	71.293	-257.045	1494.356	802.629	-231.482	1499.133	800.856	-132.822	1489.579	804.402	-330.141	1343.193	851.377	-185.541	1337.173	852.597	-240.189	1577.788	426.390	-107.012	1389.740	417.362	-323.924	1584.531	421.868	-201.041	1384.087	400.965	-227.315	1478.526	108.046	-132.097	1306.151	70.842	-293.855	1495.728	108.757	-191.442	1308.701	70.963	-226.701	1378.147	1216.957	-235.805	1485.635	1156.577	-194.962	1482.658	1159.955	-270.770	1469.371	1157.329	-233.725	1496.154	1074.647	-236.051	1636.466	581.208	-57.962	1549.045	530.675	-290.411	1540.183	594.168	-80.872	1483.402	593.458	-327.536	1576.716	518.366	-96.295	1463.914	508.265	-319.524	1489.691	218.812	-53.955	1356.442	183.041	-371.140	1489.968	184.947	-130.087	1327.447	151.654	-298.104	1566.879	53.324	-137.784	1407.962	36.526	-263.381
	86	0.81667	1444.323	739.254	-228.941	1434.157	737.023	-162.989	1426.953	739.094	-293.089	1586.184	423.239	-162.271	1395.084	421.540	-269.518	1521.573	99.932	-167.618	1310.609	71.911	-256.792	1505.185	802.195	-231.150	1510.650	800.624	-132.452	1499.720	803.766	-329.849	1354.548	850.775	-184.091	1348.086	852.094	-238.697	1591.861	426.114	-107.640	1392.106	417.809	-323.809	1598.163	422.757	-202.219	1388.665	401.746	-226.522	1512.171	101.211	-131.339	1306.319	71.610	-293.541	1529.057	102.746	-190.814	1309.293	71.792	-226.459	1389.649	1216.340	-235.862	1496.924	1155.843	-194.881	1493.980	1159.210	-270.808	1480.675	1156.614	-233.710	1507.321	1073.887	-236.002	1649.310	581.762	-58.682	1555.252	528.253	-292.521	1552.873	594.322	-81.403	1490.119	592.508	-328.275	1589.843	518.864	-97.121	1468.903	507.394	-320.030	1516.980	212.652	-53.401	1356.326	183.926	-371.132	1518.868	178.135	-129.732	1327.839	152.463	-298.031	1603.966	52.643	-137.629	1408.090	36.416	-263.450
	87	0.82500	1455.443	738.599	-228.599	1445.613	736.439	-162.113	1437.596	738.416	-292.166	1599.603	422.677	-162.897	1398.564	421.807	-269.388	1555.377	94.238	-166.853	1311.456	72.637	-256.437	1516.189	801.588	-230.762	1522.274	800.087	-132.045	1510.104	803.089	-329.478	1366.055	849.992	-182.670	1359.137	851.473	-237.223	1605.396	425.383	-108.270	1394.472	418.410	-323.628	1610.690	423.448	-203.826	1395.077	400.895	-227.562	1546.167	95.040	-130.510	1306.506	72.512	-293.104	1562.605	97.331	-190.123	1310.116	72.914	-226.166	1401.153	1215.663	-235.892	1508.271	1154.996	-194.814	1505.404	1158.307	-270.810	1492.060	1155.767	-233.690	1518.549	1072.987	-235.887	1661.510	581.618	-59.199	1561.425	525.875	-295.108	1565.015	594.077	-81.822	1496.697	591.538	-329.263	1602.169	518.805	-98.071	1474.844	506.654	-321.419	1544.416	206.840	-52.814	1356.077	185.002	-371.053	1548.046	171.854	-129.024	1327.973	153.612	-298.323	1641.026	52.751	-137.502	1408.238	36.322	-263.488
	88	0.83333	1466.677	737.785	-228.189	1457.150	735.613	-161.308	1448.309	737.656	-291.307	1612.725	421.771	-163.503	1402.213	422.168	-269.184	1589.471	89.357	-166.011	1312.388	73.482	-255.965	1527.302	800.784	-230.370	1534.016	799.233	-131.643	1520.587	802.336	-329.098	1377.662	849.067	-181.281	1370.358	850.722	-235.767	1618.455	424.229	-108.857	1396.890	419.148	-323.339	1622.370	423.556	-205.360	1401.161	400.288	-228.091	1580.426	89.715	-129.620	1306.708	73.559	-292.527	1596.196	92.646	-189.387	1311.472	74.211	-225.757	1412.654	1214.900	-235.912	1519.656	1154.011	-194.694	1516.909	1157.285	-270.649	1503.505	1154.792	-233.571	1529.835	1071.959	-235.685	1673.040	580.776	-59.468	1567.512	523.514	-298.028	1576.560	593.337	-82.158	1502.905	590.477	-330.207	1613.756	518.098	-98.929	1480.244	506.075	-322.692	1571.916	201.513	-52.204	1355.729	186.275	-370.875	1577.462	166.477	-128.017	1328.019	155.014	-298.709	1677.955	53.766	-137.418	1408.437	36.274	-263.479
